<?xml version="1.0" encoding="UTF-8" standalone="no"?>
<!-- Created with Inkscape (http://www.inkscape.org/) -->

<svg
   xmlns:dc="http://purl.org/dc/elements/1.1/"
   xmlns:cc="http://creativecommons.org/ns#"
   xmlns:rdf="http://www.w3.org/1999/02/22-rdf-syntax-ns#"
   xmlns:svg="http://www.w3.org/2000/svg"
   xmlns="http://www.w3.org/2000/svg"
   xmlns:sodipodi="http://sodipodi.sourceforge.net/DTD/sodipodi-0.dtd"
   xmlns:inkscape="http://www.inkscape.org/namespaces/inkscape"
   width="48"
   height="48"
   viewBox="0 0 48.000001 48.000001"
   id="svg2"
   version="1.1"
   inkscape:version="0.91 r13725"
   sodipodi:docname="copo.svg">
  <defs
     id="defs4" />
  <sodipodi:namedview
     id="base"
     pagecolor="#ffffff"
     bordercolor="#666666"
     borderopacity="1.0"
     inkscape:pageopacity="0.0"
     inkscape:pageshadow="2"
     inkscape:zoom="16"
     inkscape:cx="21.183532"
     inkscape:cy="26.752566"
     inkscape:document-units="px"
     inkscape:current-layer="layer1"
     showgrid="false"
     units="px"
     inkscape:window-width="2560"
     inkscape:window-height="1392"
     inkscape:window-x="1920"
     inkscape:window-y="0"
     inkscape:window-maximized="1"
     inkscape:object-nodes="true"
     inkscape:snap-intersection-paths="true"
     inkscape:snap-midpoints="true" />
  <metadata
     id="metadata7">
    <rdf:RDF>
      <cc:Work
         rdf:about="">
        <dc:format>image/svg+xml</dc:format>
        <dc:type
           rdf:resource="http://purl.org/dc/dcmitype/StillImage" />
        <dc:title />
      </cc:Work>
    </rdf:RDF>
  </metadata>
  <g
     inkscape:label="Layer 1"
     inkscape:groupmode="layer"
     id="layer1"
     transform="translate(0,-1004.3622)">
    <path
       style="opacity:1;fill:#546e7a;fill-opacity:1;fill-rule:nonzero;stroke:none;stroke-width:1;stroke-linecap:butt;stroke-linejoin:round;stroke-miterlimit:4;stroke-dasharray:none;stroke-opacity:1"
       d="M 12,6 C 8.6862915,6 6,8.6862915 6,12 l 0,24 c 0,3.313708 2.6862915,6 6,6 l 12,0 -1,-6 -11,0 0,-24 6,0 -1,-6 z m 12,0 1,6 11,0 0,24 -6,0 1,6 5,0 c 3.313708,0 6,-2.686292 6,-6 L 42,12 C 42,8.6862915 39.313708,6 36,6 32,6 24,6 24,6 Z"
       id="rect4193"
       inkscape:connector-curvature="0"
       sodipodi:nodetypes="scccccccccsccccccscccc"
       transform="translate(0,1004.3622)" />
    <circle
       style="opacity:1;fill:#546e7a;fill-opacity:1;fill-rule:nonzero;stroke:none;stroke-width:0.1;stroke-linecap:butt;stroke-linejoin:round;stroke-miterlimit:4;stroke-dasharray:none;stroke-opacity:1"
       id="path4786"
       cx="24"
       cy="1028.3622"
       r="6" />
    <path
       style="fill:#00fec9;fill-rule:evenodd;stroke:none;stroke-width:1px;stroke-linecap:butt;stroke-linejoin:miter;stroke-opacity:1;fill-opacity:1"
       d="M 24 18 A 6 6 0 0 0 19.642578 19.884766 L 21.650391 29.517578 A 6 6 0 0 0 24 30 A 6 6 0 0 0 28.357422 28.115234 L 26.349609 18.478516 A 6 6 0 0 0 24 18 z "
       transform="translate(0,1004.3622)"
       id="path4788" />
    <path
       style="opacity:0.753;fill:#000000;fill-opacity:0.53684238;fill-rule:nonzero;stroke:none;stroke-width:0.1;stroke-linecap:butt;stroke-linejoin:round;stroke-miterlimit:4;stroke-dasharray:none;stroke-opacity:1"
       d="M 24 18 A 6 6 0 0 0 21 18.814453 L 21 19 L 24 19 L 24 18 z M 25 18.091797 L 25 20 L 21 20 L 21 21 L 26 21 L 26 18.349609 A 6 6 0 0 0 25 18.091797 z M 20 19.544922 A 6 6 0 0 0 19.642578 19.884766 L 20 21.599609 L 20 19.544922 z M 21 22 L 21 23 L 27 23 L 27 29.185547 A 6 6 0 0 0 28 28.455078 L 28 26.400391 L 27.083984 22 L 21 22 z M 20.5 24 L 20.708984 25 L 23 25 L 23 24 L 20.5 24 z M 24 24 L 24 25 L 25 25 L 25 29.908203 A 6 6 0 0 0 26 29.646484 L 26 24 L 24 24 z M 20.917969 26 L 21.125 27 L 23 27 L 23 28 L 21.333984 28 L 21.542969 29 L 23 29 L 23 29.90625 A 6 6 0 0 0 23.984375 30 L 24 30 L 24 26 L 20.917969 26 z "
       transform="translate(0,1004.3622)"
       id="rect4868" />
  </g>
</svg>
