<?xml version="1.0" encoding="UTF-8" standalone="no"?>
<!-- Created with Inkscape (http://www.inkscape.org/) -->

<svg
   xmlns:dc="http://purl.org/dc/elements/1.1/"
   xmlns:cc="http://creativecommons.org/ns#"
   xmlns:rdf="http://www.w3.org/1999/02/22-rdf-syntax-ns#"
   xmlns:svg="http://www.w3.org/2000/svg"
   xmlns="http://www.w3.org/2000/svg"
   xmlns:sodipodi="http://sodipodi.sourceforge.net/DTD/sodipodi-0.dtd"
   xmlns:inkscape="http://www.inkscape.org/namespaces/inkscape"
   width="91.861023"
   height="48"
   viewBox="0 0 91.861025 48.000001"
   id="svg2"
   version="1.1"
   inkscape:version="0.91 r13725"
   sodipodi:docname="copo_logo.svg">
  <defs
     id="defs4" />
  <sodipodi:namedview
     id="base"
     pagecolor="#ffffff"
     bordercolor="#666666"
     borderopacity="1.0"
     inkscape:pageopacity="0.0"
     inkscape:pageshadow="2"
     inkscape:zoom="11.313709"
     inkscape:cx="44.045282"
     inkscape:cy="32.977138"
     inkscape:document-units="px"
     inkscape:current-layer="layer1"
     showgrid="false"
     units="px"
     inkscape:window-width="2560"
     inkscape:window-height="1392"
     inkscape:window-x="1920"
     inkscape:window-y="0"
     inkscape:window-maximized="1"
     inkscape:object-nodes="true"
     inkscape:snap-intersection-paths="true"
     inkscape:snap-midpoints="true"
     inkscape:showpageshadow="false"
     fit-margin-top="6"
     fit-margin-left="6"
     fit-margin-bottom="6"
     fit-margin-right="6" />
  <metadata
     id="metadata7">
    <rdf:RDF>
      <cc:Work
         rdf:about="">
        <dc:format>image/svg+xml</dc:format>
        <dc:type
           rdf:resource="http://purl.org/dc/dcmitype/StillImage" />
        <dc:title></dc:title>
      </cc:Work>
    </rdf:RDF>
  </metadata>
  <g
     inkscape:label="Layer 1"
     inkscape:groupmode="layer"
     id="layer1"
     transform="translate(0,-1004.3622)">
    <flowRoot
       xml:space="preserve"
       id="flowRoot4146"
       style="font-style:normal;font-variant:normal;font-weight:normal;font-stretch:normal;font-size:8.75461578px;line-height:125%;font-family:'Roboto Light';-inkscape-font-specification:'Roboto Light, ';text-align:start;letter-spacing:0px;word-spacing:0px;text-anchor:start;fill:#000000;fill-opacity:1;stroke:none;stroke-width:1px;stroke-linecap:butt;stroke-linejoin:miter;stroke-opacity:1"
       transform="translate(44.843809,-43.39151)"><flowRegion
         id="flowRegion4148"><rect
           id="rect4150"
           width="65.51329"
           height="47.953053"
           x="1.1969199"
           y="1053.6554"
           style="font-style:normal;font-variant:normal;font-weight:normal;font-stretch:normal;font-family:'Roboto Light';-inkscape-font-specification:'Roboto Light, ';text-align:start;text-anchor:start" /></flowRegion><flowPara
         id="flowPara4192"
         style="font-style:normal;font-variant:normal;font-weight:normal;font-stretch:normal;font-size:8.75461578px;font-family:'Roboto Light';-inkscape-font-specification:'Roboto Light, '">Correlated</flowPara><flowPara
         id="flowPara4199"
         style="font-style:normal;font-variant:normal;font-weight:normal;font-stretch:normal;font-size:3.75px;font-family:Roboto;-inkscape-font-specification:Roboto">Storage and automation</flowPara><flowPara
         style="font-style:normal;font-variant:normal;font-weight:normal;font-stretch:normal;font-size:3.75px;font-family:'Roboto Medium';-inkscape-font-specification:'Roboto Medium, '"
         id="flowPara4213">for the modern world</flowPara><flowPara
         id="flowPara4154"
         style="font-size:5px" /><flowPara
         style="font-size:5px"
         id="flowPara4209" /><flowPara
         style="font-style:normal;font-variant:normal;font-weight:normal;font-stretch:normal;font-size:2.5px;font-family:'Roboto Medium';-inkscape-font-specification:'Roboto Medium, '"
         id="flowPara4211">AN ELYTRA PROJECT</flowPara><flowPara
         id="flowPara4201"
         style="font-size:5px" /></flowRoot>    <flowRoot
       transform="translate(45.021484,-33.39151)"
       style="font-style:normal;font-variant:normal;font-weight:normal;font-stretch:normal;font-size:8.75461578px;line-height:125%;font-family:'Roboto Condensed';-inkscape-font-specification:'Roboto Condensed, ';text-align:start;letter-spacing:0px;word-spacing:0px;text-anchor:start;fill:#000000;fill-opacity:1;stroke:none;stroke-width:1px;stroke-linecap:butt;stroke-linejoin:miter;stroke-opacity:1"
       id="flowRoot4160"
       xml:space="preserve"><flowRegion
         id="flowRegion4162"><rect
           style="font-style:normal;font-variant:normal;font-weight:normal;font-stretch:normal;font-family:'Roboto Condensed';-inkscape-font-specification:'Roboto Condensed, ';text-align:start;text-anchor:start"
           y="1053.6554"
           x="1.1969199"
           height="9.5926628"
           width="42.355541"
           id="rect4164" /></flowRegion><flowPara
         id="flowPara4172"
         style="font-style:normal;font-variant:normal;font-weight:normal;font-stretch:normal;font-size:1.25px;font-family:'Roboto Condensed';-inkscape-font-specification:'Roboto Condensed, ';text-align:start;text-anchor:start" /></flowRoot>    <path
       style="opacity:1;fill:#546e7a;fill-opacity:1;fill-rule:nonzero;stroke:none;stroke-width:1;stroke-linecap:butt;stroke-linejoin:round;stroke-miterlimit:4;stroke-dasharray:none;stroke-opacity:1"
       d="m 12,1010.3622 c -3.3137085,0 -6,2.6863 -6,6 l 0,24 c 0,3.3137 2.6862915,6 6,6 l 12,0 -1,-6 -11,0 0,-24 6,0 -1,-6 z m 12,0 1,6 11,0 0,24 -6,0 1,6 5,0 c 3.313708,0 6,-2.6863 6,-6 l 0,-24 c 0,-3.3137 -2.686292,-6 -6,-6 -4,0 -12,0 -12,0 z"
       id="rect4193"
       inkscape:connector-curvature="0"
       sodipodi:nodetypes="scccccccccsccccccscccc" />
    <circle
       style="opacity:1;fill:#546e7a;fill-opacity:1;fill-rule:nonzero;stroke:none;stroke-width:0.1;stroke-linecap:butt;stroke-linejoin:round;stroke-miterlimit:4;stroke-dasharray:none;stroke-opacity:1"
       id="path4786"
       cx="24"
       cy="1028.3622"
       r="6" />
    <path
       inkscape:connector-curvature="0"
       style="fill:#00fec9;fill-opacity:1;fill-rule:evenodd;stroke:none;stroke-width:1px;stroke-linecap:butt;stroke-linejoin:miter;stroke-opacity:1"
       d="m 24,1022.3622 a 6,6 0 0 0 -4.357422,1.8848 l 2.007813,9.6328 A 6,6 0 0 0 24,1034.3622 a 6,6 0 0 0 4.357422,-1.8848 l -2.007813,-9.6367 A 6,6 0 0 0 24,1022.3622 Z"
       id="path4788" />
    <path
       inkscape:connector-curvature="0"
       style="opacity:0.753;fill:#000000;fill-opacity:0.53684238;fill-rule:nonzero;stroke:none;stroke-width:0.1;stroke-linecap:butt;stroke-linejoin:round;stroke-miterlimit:4;stroke-dasharray:none;stroke-opacity:1"
       d="m 24,1022.3622 a 6,6 0 0 0 -3,0.8145 l 0,0.1855 3,0 0,-1 z m 1,0.092 0,1.9082 -4,0 0,1 5,0 0,-2.6504 a 6,6 0 0 0 -1,-0.2578 z m -5,1.4531 a 6,6 0 0 0 -0.357422,0.3399 L 20,1025.9618 l 0,-2.0547 z m 1,2.4551 0,1 6,0 0,6.1855 a 6,6 0 0 0 1,-0.7304 l 0,-2.0547 -0.916016,-4.4004 -6.083984,0 z m -0.5,2 0.208984,1 2.291016,0 0,-1 -2.5,0 z m 3.5,0 0,1 1,0 0,4.9082 a 6,6 0 0 0 1,-0.2617 l 0,-5.6465 -2,0 z m -3.082031,2 0.207031,1 1.875,0 0,1 -1.666016,0 0.208985,1 1.457031,0 0,0.9063 a 6,6 0 0 0 0.984375,0.094 l 0.01563,0 0,-4 -3.082031,0 z"
       id="rect4868" />
  </g>
</svg>
